<mxfile host="app.diagrams.net" modified="2021-06-17T06:22:45.249Z" agent="5.0 (Windows NT 10.0; Win64; x64) AppleWebKit/537.36 (KHTML, like Gecko) Chrome/91.0.4472.106 Safari/537.36" etag="eR594YrpQUJx0M4BMDaH" version="14.7.10" type="github">
  <diagram name="Page-1" id="74e2e168-ea6b-b213-b513-2b3c1d86103e">
    <mxGraphModel dx="1447" dy="672" grid="1" gridSize="10" guides="1" tooltips="1" connect="1" arrows="1" fold="1" page="1" pageScale="1" pageWidth="1100" pageHeight="850" background="none" math="0" shadow="0">
      <root>
        <mxCell id="0" />
        <mxCell id="1" parent="0" />
        <mxCell id="KF5SyPwhW16a7i6KgmM0-4" value="Pemilik Toko" style="rounded=0;whiteSpace=wrap;html=1;fontSize=15;" vertex="1" parent="1">
          <mxGeometry x="620" y="110" width="250" height="30" as="geometry" />
        </mxCell>
        <mxCell id="KF5SyPwhW16a7i6KgmM0-5" value="Karyawan" style="rounded=0;whiteSpace=wrap;html=1;fontSize=15;" vertex="1" parent="1">
          <mxGeometry x="370" y="110" width="250" height="30" as="geometry" />
        </mxCell>
        <mxCell id="KF5SyPwhW16a7i6KgmM0-6" value="" style="rounded=0;whiteSpace=wrap;html=1;" vertex="1" parent="1">
          <mxGeometry x="121" y="140" width="250" height="840" as="geometry" />
        </mxCell>
        <mxCell id="KF5SyPwhW16a7i6KgmM0-7" value="" style="rounded=0;whiteSpace=wrap;html=1;" vertex="1" parent="1">
          <mxGeometry x="370" y="140" width="250" height="850" as="geometry" />
        </mxCell>
        <mxCell id="KF5SyPwhW16a7i6KgmM0-8" value="" style="rounded=0;whiteSpace=wrap;html=1;" vertex="1" parent="1">
          <mxGeometry x="620" y="140" width="250" height="850" as="geometry" />
        </mxCell>
        <mxCell id="KF5SyPwhW16a7i6KgmM0-1" value="&lt;font style=&quot;font-size: 15px;&quot;&gt;K&lt;/font&gt;&lt;font style=&quot;font-size: 15px;&quot;&gt;onsumen&lt;/font&gt;" style="rounded=0;whiteSpace=wrap;html=1;fontFamily=Times New Roman;fontSize=15;" vertex="1" parent="1">
          <mxGeometry x="120" y="110" width="250" height="30" as="geometry" />
        </mxCell>
        <mxCell id="KF5SyPwhW16a7i6KgmM0-40" value="" style="edgeStyle=orthogonalEdgeStyle;rounded=0;orthogonalLoop=1;jettySize=auto;html=1;fontFamily=Times New Roman;fontSize=22;" edge="1" parent="1" source="KF5SyPwhW16a7i6KgmM0-9" target="KF5SyPwhW16a7i6KgmM0-13">
          <mxGeometry relative="1" as="geometry" />
        </mxCell>
        <mxCell id="KF5SyPwhW16a7i6KgmM0-9" value="Mulai" style="strokeWidth=2;html=1;shape=mxgraph.flowchart.terminator;whiteSpace=wrap;fontFamily=Times New Roman;fontSize=22;" vertex="1" parent="1">
          <mxGeometry x="179" y="160" width="140" height="40" as="geometry" />
        </mxCell>
        <mxCell id="KF5SyPwhW16a7i6KgmM0-41" value="" style="edgeStyle=orthogonalEdgeStyle;rounded=0;orthogonalLoop=1;jettySize=auto;html=1;fontFamily=Times New Roman;fontSize=22;" edge="1" parent="1" source="KF5SyPwhW16a7i6KgmM0-13" target="KF5SyPwhW16a7i6KgmM0-15">
          <mxGeometry relative="1" as="geometry">
            <Array as="points">
              <mxPoint x="390" y="300" />
              <mxPoint x="390" y="200" />
            </Array>
          </mxGeometry>
        </mxCell>
        <mxCell id="KF5SyPwhW16a7i6KgmM0-13" value="&lt;div style=&quot;font-size: 21px;&quot;&gt;&lt;span style=&quot;font-size: 21px;&quot;&gt;Membeli Produk&lt;/span&gt;&lt;/div&gt;" style="verticalLabelPosition=middle;verticalAlign=middle;html=1;shape=trapezoid;perimeter=trapezoidPerimeter;size=0.23;arcSize=10;flipV=1;labelPosition=center;align=center;fontFamily=Times New Roman;fontSize=21;horizontal=1;whiteSpace=wrap;" vertex="1" parent="1">
          <mxGeometry x="184" y="270" width="130" height="60" as="geometry" />
        </mxCell>
        <mxCell id="KF5SyPwhW16a7i6KgmM0-46" value="" style="edgeStyle=orthogonalEdgeStyle;rounded=0;orthogonalLoop=1;jettySize=auto;html=1;fontFamily=Times New Roman;fontSize=22;" edge="1" parent="1">
          <mxGeometry relative="1" as="geometry">
            <mxPoint x="507.5" y="300" as="sourcePoint" />
            <mxPoint x="506" y="332" as="targetPoint" />
          </mxGeometry>
        </mxCell>
        <mxCell id="KF5SyPwhW16a7i6KgmM0-14" value="&lt;font style=&quot;font-size: 23px&quot;&gt;Membuatkan Nota&lt;/font&gt;" style="verticalLabelPosition=middle;verticalAlign=middle;html=1;shape=trapezoid;perimeter=trapezoidPerimeter;size=0.23;arcSize=10;flipV=1;labelPosition=center;align=center;fontFamily=Times New Roman;fontSize=22;whiteSpace=wrap;" vertex="1" parent="1">
          <mxGeometry x="422" y="240" width="169" height="60" as="geometry" />
        </mxCell>
        <mxCell id="KF5SyPwhW16a7i6KgmM0-43" value="" style="edgeStyle=orthogonalEdgeStyle;rounded=0;orthogonalLoop=1;jettySize=auto;html=1;fontFamily=Times New Roman;fontSize=22;entryX=0.5;entryY=0;entryDx=0;entryDy=0;" edge="1" parent="1" source="KF5SyPwhW16a7i6KgmM0-15" target="KF5SyPwhW16a7i6KgmM0-14">
          <mxGeometry relative="1" as="geometry">
            <mxPoint x="520" y="290" as="targetPoint" />
          </mxGeometry>
        </mxCell>
        <mxCell id="KF5SyPwhW16a7i6KgmM0-15" value="Menerima Pembayaran" style="verticalLabelPosition=middle;verticalAlign=middle;html=1;shape=trapezoid;perimeter=trapezoidPerimeter;whiteSpace=wrap;size=0.23;arcSize=10;flipV=1;labelPosition=center;align=center;fontFamily=Times New Roman;fontSize=22;" vertex="1" parent="1">
          <mxGeometry x="416" y="150" width="180" height="60" as="geometry" />
        </mxCell>
        <mxCell id="KF5SyPwhW16a7i6KgmM0-48" value="" style="edgeStyle=orthogonalEdgeStyle;rounded=0;orthogonalLoop=1;jettySize=auto;html=1;fontFamily=Times New Roman;fontSize=22;" edge="1" parent="1">
          <mxGeometry relative="1" as="geometry">
            <mxPoint x="504" y="417" as="sourcePoint" />
            <mxPoint x="503.5" y="450" as="targetPoint" />
          </mxGeometry>
        </mxCell>
        <mxCell id="KF5SyPwhW16a7i6KgmM0-18" value="" style="shape=document;whiteSpace=wrap;html=1;boundedLbl=1;fontFamily=Times New Roman;fontSize=15;" vertex="1" parent="1">
          <mxGeometry x="438" y="337" width="120" height="80" as="geometry" />
        </mxCell>
        <mxCell id="KF5SyPwhW16a7i6KgmM0-55" value="" style="edgeStyle=orthogonalEdgeStyle;rounded=0;orthogonalLoop=1;jettySize=auto;html=1;fontFamily=Times New Roman;fontSize=22;" edge="1" parent="1" source="KF5SyPwhW16a7i6KgmM0-19">
          <mxGeometry relative="1" as="geometry">
            <mxPoint x="590" y="861" as="targetPoint" />
            <Array as="points">
              <mxPoint x="610" y="370" />
              <mxPoint x="610" y="840" />
              <mxPoint x="590" y="840" />
            </Array>
          </mxGeometry>
        </mxCell>
        <mxCell id="KF5SyPwhW16a7i6KgmM0-57" style="edgeStyle=orthogonalEdgeStyle;rounded=0;orthogonalLoop=1;jettySize=auto;html=1;entryX=1;entryY=0.5;entryDx=0;entryDy=0;fontFamily=Times New Roman;fontSize=22;" edge="1" parent="1" source="KF5SyPwhW16a7i6KgmM0-19" target="KF5SyPwhW16a7i6KgmM0-37">
          <mxGeometry relative="1" as="geometry" />
        </mxCell>
        <mxCell id="KF5SyPwhW16a7i6KgmM0-19" value="Nota" style="shape=document;whiteSpace=wrap;html=1;boundedLbl=1;fontFamily=Times New Roman;fontSize=22;" vertex="1" parent="1">
          <mxGeometry x="439" y="330" width="112" height="80" as="geometry" />
        </mxCell>
        <mxCell id="KF5SyPwhW16a7i6KgmM0-50" value="" style="edgeStyle=orthogonalEdgeStyle;rounded=0;orthogonalLoop=1;jettySize=auto;html=1;fontFamily=Times New Roman;fontSize=22;" edge="1" parent="1" source="KF5SyPwhW16a7i6KgmM0-21" target="KF5SyPwhW16a7i6KgmM0-22">
          <mxGeometry relative="1" as="geometry" />
        </mxCell>
        <mxCell id="KF5SyPwhW16a7i6KgmM0-21" value="Mencatat Penjualan" style="verticalLabelPosition=middle;verticalAlign=middle;html=1;shape=trapezoid;perimeter=trapezoidPerimeter;whiteSpace=wrap;size=0.23;arcSize=10;flipV=1;labelPosition=center;align=center;fontFamily=Times New Roman;fontSize=24;" vertex="1" parent="1">
          <mxGeometry x="411" y="450" width="191" height="60" as="geometry" />
        </mxCell>
        <mxCell id="KF5SyPwhW16a7i6KgmM0-53" value="" style="edgeStyle=orthogonalEdgeStyle;rounded=0;orthogonalLoop=1;jettySize=auto;html=1;fontFamily=Times New Roman;fontSize=22;" edge="1" parent="1" source="KF5SyPwhW16a7i6KgmM0-22" target="KF5SyPwhW16a7i6KgmM0-38">
          <mxGeometry relative="1" as="geometry" />
        </mxCell>
        <mxCell id="KF5SyPwhW16a7i6KgmM0-22" value="Buku Penjualan" style="shape=document;whiteSpace=wrap;html=1;boundedLbl=1;fontFamily=Times New Roman;fontSize=22;" vertex="1" parent="1">
          <mxGeometry x="427" y="550" width="159" height="90" as="geometry" />
        </mxCell>
        <mxCell id="KF5SyPwhW16a7i6KgmM0-23" value="" style="shape=document;whiteSpace=wrap;html=1;boundedLbl=1;fontFamily=Times New Roman;fontSize=15;" vertex="1" parent="1">
          <mxGeometry x="436" y="775" width="120" height="80" as="geometry" />
        </mxCell>
        <mxCell id="KF5SyPwhW16a7i6KgmM0-34" value="" style="edgeStyle=orthogonalEdgeStyle;rounded=0;orthogonalLoop=1;jettySize=auto;html=1;fontFamily=Times New Roman;fontSize=15;" edge="1" parent="1" source="KF5SyPwhW16a7i6KgmM0-24" target="KF5SyPwhW16a7i6KgmM0-28">
          <mxGeometry relative="1" as="geometry" />
        </mxCell>
        <mxCell id="KF5SyPwhW16a7i6KgmM0-58" style="edgeStyle=orthogonalEdgeStyle;rounded=0;orthogonalLoop=1;jettySize=auto;html=1;entryX=0;entryY=0.5;entryDx=0;entryDy=0;fontFamily=Times New Roman;fontSize=22;" edge="1" parent="1" source="KF5SyPwhW16a7i6KgmM0-24" target="KF5SyPwhW16a7i6KgmM0-26">
          <mxGeometry relative="1" as="geometry" />
        </mxCell>
        <mxCell id="KF5SyPwhW16a7i6KgmM0-24" value="Laporan Penjualan" style="shape=document;whiteSpace=wrap;html=1;boundedLbl=1;fontFamily=Times New Roman;fontSize=22;" vertex="1" parent="1">
          <mxGeometry x="450" y="775" width="112" height="80" as="geometry" />
        </mxCell>
        <mxCell id="KF5SyPwhW16a7i6KgmM0-59" style="edgeStyle=orthogonalEdgeStyle;rounded=0;orthogonalLoop=1;jettySize=auto;html=1;entryX=0;entryY=0.5;entryDx=0;entryDy=0;fontFamily=Times New Roman;fontSize=22;" edge="1" parent="1" source="KF5SyPwhW16a7i6KgmM0-26" target="KF5SyPwhW16a7i6KgmM0-35">
          <mxGeometry relative="1" as="geometry" />
        </mxCell>
        <mxCell id="KF5SyPwhW16a7i6KgmM0-26" value="Laporan Penjualan" style="shape=document;whiteSpace=wrap;html=1;boundedLbl=1;fontFamily=Times New Roman;fontSize=22;" vertex="1" parent="1">
          <mxGeometry x="667" y="670" width="120" height="80" as="geometry" />
        </mxCell>
        <mxCell id="KF5SyPwhW16a7i6KgmM0-27" value="C" style="triangle;whiteSpace=wrap;html=1;fontFamily=Times New Roman;fontSize=15;rotation=90;textDirection=ltr;verticalAlign=middle;horizontal=0;" vertex="1" parent="1">
          <mxGeometry x="541" y="853" width="70" height="85" as="geometry" />
        </mxCell>
        <mxCell id="KF5SyPwhW16a7i6KgmM0-28" value="C" style="triangle;whiteSpace=wrap;html=1;fontFamily=Times New Roman;fontSize=15;rotation=90;horizontal=0;" vertex="1" parent="1">
          <mxGeometry x="466" y="898" width="70" height="85" as="geometry" />
        </mxCell>
        <mxCell id="KF5SyPwhW16a7i6KgmM0-29" value="" style="endArrow=none;html=1;fontFamily=Times New Roman;fontSize=15;exitX=0.246;exitY=0.896;exitDx=0;exitDy=0;exitPerimeter=0;entryX=0.226;entryY=0.117;entryDx=0;entryDy=0;entryPerimeter=0;" edge="1" parent="1">
          <mxGeometry width="50" height="50" relative="1" as="geometry">
            <mxPoint x="467.3399999999999" y="921.72" as="sourcePoint" />
            <mxPoint x="533.5550000000001" y="920.3199999999999" as="targetPoint" />
          </mxGeometry>
        </mxCell>
        <mxCell id="KF5SyPwhW16a7i6KgmM0-33" value="" style="endArrow=none;html=1;fontFamily=Times New Roman;fontSize=15;exitX=0.246;exitY=0.896;exitDx=0;exitDy=0;exitPerimeter=0;entryX=0.226;entryY=0.117;entryDx=0;entryDy=0;entryPerimeter=0;" edge="1" parent="1">
          <mxGeometry width="50" height="50" relative="1" as="geometry">
            <mxPoint x="543.34" y="877.72" as="sourcePoint" />
            <mxPoint x="609.5550000000001" y="876.3199999999999" as="targetPoint" />
          </mxGeometry>
        </mxCell>
        <mxCell id="KF5SyPwhW16a7i6KgmM0-35" value="C" style="triangle;whiteSpace=wrap;html=1;fontFamily=Times New Roman;fontSize=15;rotation=90;textDirection=ltr;verticalAlign=middle;horizontal=0;" vertex="1" parent="1">
          <mxGeometry x="692" y="775" width="70" height="85" as="geometry" />
        </mxCell>
        <mxCell id="KF5SyPwhW16a7i6KgmM0-36" value="" style="endArrow=none;html=1;fontFamily=Times New Roman;fontSize=15;exitX=0.246;exitY=0.896;exitDx=0;exitDy=0;exitPerimeter=0;entryX=0.226;entryY=0.117;entryDx=0;entryDy=0;entryPerimeter=0;" edge="1" parent="1">
          <mxGeometry width="50" height="50" relative="1" as="geometry">
            <mxPoint x="694.3400000000001" y="799.72" as="sourcePoint" />
            <mxPoint x="760.5550000000001" y="798.3199999999999" as="targetPoint" />
          </mxGeometry>
        </mxCell>
        <mxCell id="KF5SyPwhW16a7i6KgmM0-37" value="Nota Pembelian" style="shape=document;whiteSpace=wrap;html=1;boundedLbl=1;fontFamily=Times New Roman;fontSize=15;" vertex="1" parent="1">
          <mxGeometry x="180" y="390" width="120" height="80" as="geometry" />
        </mxCell>
        <mxCell id="KF5SyPwhW16a7i6KgmM0-56" value="" style="edgeStyle=orthogonalEdgeStyle;rounded=0;orthogonalLoop=1;jettySize=auto;html=1;fontFamily=Times New Roman;fontSize=22;" edge="1" parent="1" source="KF5SyPwhW16a7i6KgmM0-38" target="KF5SyPwhW16a7i6KgmM0-24">
          <mxGeometry relative="1" as="geometry" />
        </mxCell>
        <mxCell id="KF5SyPwhW16a7i6KgmM0-38" value="Membuat Laporan" style="verticalLabelPosition=middle;verticalAlign=middle;html=1;shape=trapezoid;perimeter=trapezoidPerimeter;whiteSpace=wrap;size=0.23;arcSize=10;flipV=1;labelPosition=center;align=center;fontFamily=Times New Roman;fontSize=24;" vertex="1" parent="1">
          <mxGeometry x="424.25" y="670" width="164.5" height="80" as="geometry" />
        </mxCell>
      </root>
    </mxGraphModel>
  </diagram>
</mxfile>
